<svg width="44" height="22" viewBox="0 0 44 22" fill="none" xmlns="http://www.w3.org/2000/svg">
<path d="M44 22H22V0H44V22ZM32.999 3.75C28.9895 3.75011 25.7393 7.00122 25.7393 11.0107C25.7395 15.0201 28.9897 18.2704 32.999 18.2705C37.0085 18.2705 40.2586 15.0202 40.2588 11.0107C40.2588 7.00116 37.0086 3.75 32.999 3.75Z" fill="black"/>
<path d="M5.17188 10.9966C5.17188 7.77682 7.78204 5.16666 11.0019 5.16666C14.2217 5.16666 16.8318 7.77682 16.8318 10.9966C16.8318 14.2165 14.2217 16.8266 11.0019 16.8266C7.78204 16.8266 5.17188 14.2165 5.17188 10.9966Z" fill="black"/>
</svg>
